inDegrees=no
num_controls=7
num_derivatives=13
num_iterations=59
num_multipliers=7
num_parameters=0
num_slacks=7
num_states=26
objective=0.419943
objective_accelerations=0.069170
objective_balance=0.006437
objective_effort=0.036724
objective_height=0.307611
objective_ligament=0.000000
solver_duration=766.160272
status=Solve_Succeeded
success=true
DataType=double
version=3
OpenSimVersion=4.5
endheader
time	/jointset/ground_pelvis/pelvis_tilt/value	/jointset/ground_pelvis/pelvis_tx/value	/jointset/ground_pelvis/pelvis_ty/value	/jointset/hip_l/hip_flexion_l/value	/jointset/hip_l/hip_adduction_l/value	/jointset/hip_l/hip_rotation_l/value	/jointset/back/lumbar_extension/value	/jointset/patellofemoral_l/patellar_flexion_l/value	/jointset/knee_l/knee_flexion_l/value	/jointset/knee_l/knee_adduction_l/value	/jointset/knee_l/knee_rotation_l/value	/jointset/ankle_l/ankle_angle_l/value	/jointset/subtalar_l/subtalar_angle_l/value	/jointset/ground_pelvis/pelvis_tilt/speed	/jointset/ground_pelvis/pelvis_tx/speed	/jointset/ground_pelvis/pelvis_ty/speed	/jointset/hip_l/hip_flexion_l/speed	/jointset/hip_l/hip_adduction_l/speed	/jointset/hip_l/hip_rotation_l/speed	/jointset/back/lumbar_extension/speed	/jointset/patellofemoral_l/patellar_flexion_l/speed	/jointset/knee_l/knee_flexion_l/speed	/jointset/knee_l/knee_adduction_l/speed	/jointset/knee_l/knee_rotation_l/speed	/jointset/ankle_l/ankle_angle_l/speed	/jointset/subtalar_l/subtalar_angle_l/speed	/forceset/tau_hip_flexion_l	/forceset/tau_hip_adduction_l	/forceset/tau_hip_rotation_l	/forceset/tau_knee_flexion_l	/forceset/tau_ankle_angle_l	/forceset/tau_subtalar_angle_l	/forceset/tau_lumbar_extension	lambda_cid13_p0	lambda_cid13_p1	lambda_cid13_p2	lambda_cid13_p3	lambda_cid13_p4	lambda_cid13_p5	lambda_cid14_p0	/jointset/ground_pelvis/pelvis_tilt/accel	/jointset/ground_pelvis/pelvis_tx/accel	/jointset/ground_pelvis/pelvis_ty/accel	/jointset/hip_l/hip_flexion_l/accel	/jointset/hip_l/hip_adduction_l/accel	/jointset/hip_l/hip_rotation_l/accel	/jointset/back/lumbar_extension/accel	/jointset/patellofemoral_l/patellar_flexion_l/accel	/jointset/knee_l/knee_flexion_l/accel	/jointset/knee_l/knee_adduction_l/accel	/jointset/knee_l/knee_rotation_l/accel	/jointset/ankle_l/ankle_angle_l/accel	/jointset/subtalar_l/subtalar_angle_l/accel	gamma_cid13_p0	gamma_cid13_p1	gamma_cid13_p2	gamma_cid13_p3	gamma_cid13_p4	gamma_cid13_p5	gamma_cid14_p0
1	-0.3689571955622548	-0.02621607541353542	0.447167735043285	2.094392020979262	-0.239575282036889	0.05836873477593697	-0.4361195573399099	1.901014813252257	1.901014813251867	0.1621683839684078	0.1730929599594941	0.4241448790604549	0.1364057537602733	-0.007573112647045938	0.0009838001485466836	-0.002146781615538957	0.01097335475138548	2.584410161172625e-05	0.002637325733956525	0.0003773420895079	0.004413182958651014	0.004413182958650829	-0.001313774154758887	0.0002625626316076739	0.001246024518817114	0.0005131839581763801	-0.2956911327676223	0.02733805535175175	-0.05995947478188784	-0.485420299966729	0.04075331319396909	0.008128674378661173	0.2782761796668451	-37.45576896861615	14.70064133340401	-16.079123780887	27.17106377996712	-768.4179801743196	-33.11019429800561	-0.03221652936390155	-0.3630249315860428	-0.5740099328248736	2.612347429122746	-6.885344998684826	-0.05227641289077103	-0.8533613807924108	-0.05736880867258984	-7.583820456061991	-7.583820456061427	-1.305643872282222	0.07529030627194655	-0.6424931898324718	-0.3140752135386735	-2.534164549614233e-09	6.238168968991855e-09	7.518265682719153e-09	6.771769754674515e-09	1.578388787024733e-09	2.064295082064142e-08	-6.700329773486442e-10
1.01	-0.3690508356540531	-0.02623487571814108	0.4472769838755134	2.094156816780957	-0.2395770715765386	0.05835743975712148	-0.4361187282539143	1.90067967779849	1.900679677798158	0.1620855645235746	0.1730991920649457	0.4241256322033792	0.13639618994692	-0.01113685877369644	-0.004737195262845535	0.0240044378954198	-0.05804554695456292	-0.0003844457858939936	-0.004894666526718658	-0.0002105016550890891	-0.07145460428591291	-0.07145460428591506	-0.01525586372098853	0.0009824016210056767	-0.005097461147671755	-0.002427458066065155	-0.2959593093881717	0.02726303458684334	-0.05987174783320624	-0.4855087208834551	0.0407981044296719	0.008185462229792139	0.2785185467584314	-37.44888464397832	14.66118900854853	-16.05731780524285	27.07400423789568	-768.6913346459826	-33.22972188832337	-0.03222191856569092	-0.3503380173551001	-0.5701459792431696	2.617688008383884	-6.91486164010644	-0.03549254462040591	-0.7028605485274628	-0.05933867228281112	-7.590412375506964	-7.590412375507698	-1.4393378128959	0.07014986893231079	-0.6305863591176903	-0.2842581258329457	1.85682033130073e-08	-8.222474697380556e-08	-1.198806632039151e-07	-7.381634359926354e-09	-2.314431556783842e-08	-3.511565989339519e-07	2.440061112020764e-08
1.02	-0.3691795709199491	-0.02631068630365017	0.4476479806621117	2.093230483788853	-0.2395829814686497	0.05827087633574235	-0.4361237469083364	1.899585433568907	1.899585433568635	0.1618631549203203	0.1731125863950243	0.4240428884688265	0.1363571798275306	-0.01459214746636259	-0.01041825603213932	0.0502028092584756	-0.1272524040027729	-0.000798226390992677	-0.01241635478028803	-0.000792205996860493	-0.1474085722046106	-0.1474085722046197	-0.02923180585132577	0.001695007556744157	-0.01145335097658375	-0.005376077248944062	-0.2962274860087307	0.02718801382193017	-0.05978402088442526	-0.4855971418001806	0.04084289566537604	0.008242250080914519	0.278760913850007	-37.44274538637345	14.61631340550458	-16.02830359048935	27.02534840459603	-768.9564032810069	-33.36699477377903	-0.03227634046655505	-0.341333444789153	-0.5660230044052064	2.621777799542147	-6.922936067137101	-0.05297455640935864	-0.8513005793712946	-0.05614092810747658	-7.601056590888742	-7.601056590889175	-1.312414385103693	0.07384369554002995	-0.6449740223171487	-0.3156706452661602	4.356783546242814e-08	-1.733790605166357e-07	-2.509733440759086e-07	-3.189835943593409e-08	-4.953850058643607e-08	-7.330856159220829e-07	4.978900232378939e-08
1.03	-0.3693421515212963	-0.026442983322295	0.4482811132823984	2.091611413069881	-0.2395930432389121	0.05810910296399087	-0.4361344972959741	1.897731464266916	1.897731464267091	0.1615009354553534	0.1731330310680797	0.4238963271597468	0.1362885729449855	-0.01788866239547612	-0.0160219338578955	0.07642352192750433	-0.1965680758456028	-0.001213944878295445	-0.01993971200310681	-0.001352387387415168	-0.2233755816020412	-0.2233755816020491	-0.04320688536496498	0.002387502221783148	-0.01787978091071939	-0.008352618631346048	-0.2963899337653947	0.02721554847124587	-0.05953532223005656	-0.4856069068226236	0.04132279231718771	0.008258437551436048	0.2789612741736983	-37.27668456704013	14.56182415416123	-15.99861869698489	26.70869049503324	-769.0122459355966	-33.49413762140083	-0.03235120153426722	-0.3185010157525534	-0.5546695492635839	2.622173719856086	-6.936821219854139	-0.03579029223743889	-0.7030362081096434	-0.05513412301706568	-7.593082315460302	-7.59308231545979	-1.439223869232819	0.06610873472736681	-0.6446075193211567	-0.2896566861074673	6.860723561477553e-08	-2.645608373002824e-07	-3.821037162946915e-07	-5.652083268501747e-08	-7.594974153017386e-08	-1.11511799482076e-06	7.518063584477958e-08
